# xmcd
#
# Track frame offsets:
# 150
# 18772
# 35865
# 54364
# 72831
# 89600
# 109666
# 124377
# 143704
# 160024
# 176648
#
# Disc length: 2637 seconds
#
# Revision: 2
# Processed by: cddbd v1.5.2PL0 Copyright (c) Steve Scherf et al.
# Submitted via: plextools 2.35
#
DISCID=930a4b0b
DTITLE=L'Orkestre des pas perdus - Projet 9
DYEAR=2007
DGENRE=Jazz
TTITLE0=L'Orkestre des pas perdus - La belle affaire
TTITLE1=L'Orkestre des pas perdus - Justice borgne
TTITLE2=L'Orkestre des pas perdus - Pièce à conviction
TTITLE3=L'Orkestre des pas perdus - Chameau #5
TTITLE4=L'Orkestre des pas perdus - Deus Ex Machina
TTITLE5=L'Orkestre des pas perdus - Gastro Funk
TTITLE6=L'Orkestre des pas perdus - Art piège
TTITLE7=L'Orkestre des pas perdus - Panorama
TTITLE8=L'Orkestre des pas perdus - Dos d'âne
TTITLE9=L'Orkestre des pas perdus - Mécanique populaire
TTITLE10=L'Orkestre des pas perdus - Couvre-feu
EXTD=
EXTT0=
EXTT1=
EXTT2=
EXTT3=
EXTT4=
EXTT5=
EXTT6=
EXTT7=
EXTT8=
EXTT9=
EXTT10=
PLAYORDER=
